<mxfile host="app.diagrams.net" agent="Mozilla/5.0 (Windows NT 10.0; Win64; x64) AppleWebKit/537.36 (KHTML, like Gecko) Chrome/132.0.0.0 Safari/537.36" version="26.0.13">
  <diagram name="第 1 页" id="PX5OH3Gvif42_RHEIpKi">
    <mxGraphModel dx="2440" dy="2517" grid="1" gridSize="10" guides="1" tooltips="1" connect="1" arrows="1" fold="1" page="1" pageScale="1" pageWidth="827" pageHeight="1169" math="0" shadow="0">
      <root>
        <mxCell id="0" />
        <mxCell id="1" parent="0" />
        <mxCell id="IDMFy60mEpOIKTwCdm0q-2" value="终端侧" style="whiteSpace=wrap;strokeWidth=2;labelPosition=center;verticalLabelPosition=top;align=center;verticalAlign=bottom;fontSize=22;" vertex="1" parent="1">
          <mxGeometry x="693" y="413" width="431" height="516" as="geometry" />
        </mxCell>
        <mxCell id="IDMFy60mEpOIKTwCdm0q-3" value="第三方侧" style="whiteSpace=wrap;strokeWidth=2;labelPosition=center;verticalLabelPosition=top;align=center;verticalAlign=bottom;fontSize=22;" vertex="1" parent="1">
          <mxGeometry x="24" width="216" height="670" as="geometry" />
        </mxCell>
        <mxCell id="IDMFy60mEpOIKTwCdm0q-4" value="小艺侧" style="whiteSpace=wrap;strokeWidth=2;labelPosition=center;verticalLabelPosition=top;align=center;verticalAlign=bottom;fontSize=22;labelBorderColor=#FF262D;labelBackgroundColor=default;" vertex="1" parent="1">
          <mxGeometry x="258" y="153" width="415" height="624" as="geometry" />
        </mxCell>
        <mxCell id="IDMFy60mEpOIKTwCdm0q-5" value="小艺" style="whiteSpace=wrap;strokeWidth=2;fontSize=22;" vertex="1" parent="1">
          <mxGeometry x="420" y="170" width="124" height="54" as="geometry" />
        </mxCell>
        <mxCell id="IDMFy60mEpOIKTwCdm0q-6" value="训推平台" style="whiteSpace=wrap;strokeWidth=2;fontSize=22;" vertex="1" parent="1">
          <mxGeometry x="290" y="310" width="156" height="54" as="geometry" />
        </mxCell>
        <mxCell id="IDMFy60mEpOIKTwCdm0q-7" value="终端SDK" style="whiteSpace=wrap;strokeWidth=2;fontSize=22;" vertex="1" parent="1">
          <mxGeometry x="519" y="286" width="119" height="54" as="geometry" />
        </mxCell>
        <mxCell id="IDMFy60mEpOIKTwCdm0q-8" value="模型托管平台" style="whiteSpace=wrap;strokeWidth=2;fontSize=27;" vertex="1" parent="1">
          <mxGeometry x="340" y="675" width="260" height="100" as="geometry" />
        </mxCell>
        <mxCell id="IDMFy60mEpOIKTwCdm0q-9" value="三方厂商" style="whiteSpace=wrap;strokeWidth=2;fontSize=22;" vertex="1" parent="1">
          <mxGeometry x="71" y="45" width="124" height="54" as="geometry" />
        </mxCell>
        <mxCell id="IDMFy60mEpOIKTwCdm0q-10" value="私有服务器" style="whiteSpace=wrap;strokeWidth=2;fontSize=22;" vertex="1" parent="1">
          <mxGeometry x="63" y="178" width="140" height="54" as="geometry" />
        </mxCell>
        <mxCell id="IDMFy60mEpOIKTwCdm0q-11" value="训练进程" style="whiteSpace=wrap;strokeWidth=2;fontSize=22;" vertex="1" parent="1">
          <mxGeometry x="60" y="438" width="124" height="54" as="geometry" />
        </mxCell>
        <mxCell id="IDMFy60mEpOIKTwCdm0q-12" value="LoRA模型" style="whiteSpace=wrap;strokeWidth=2;fontSize=22;" vertex="1" parent="1">
          <mxGeometry x="58" y="546" width="127" height="54" as="geometry" />
        </mxCell>
        <mxCell id="IDMFy60mEpOIKTwCdm0q-13" value="端侧设备" style="whiteSpace=wrap;strokeWidth=2;fontSize=22;" vertex="1" parent="1">
          <mxGeometry x="775" y="850" width="124" height="54" as="geometry" />
        </mxCell>
        <mxCell id="IDMFy60mEpOIKTwCdm0q-14" value="运行环境" style="whiteSpace=wrap;strokeWidth=2;fontSize=22;" vertex="1" parent="1">
          <mxGeometry x="949" y="438" width="124" height="54" as="geometry" />
        </mxCell>
        <mxCell id="IDMFy60mEpOIKTwCdm0q-15" value="加密基座模型" style="whiteSpace=wrap;strokeWidth=2;fontSize=22;" vertex="1" parent="1">
          <mxGeometry x="933" y="546" width="156" height="54" as="geometry" />
        </mxCell>
        <mxCell id="IDMFy60mEpOIKTwCdm0q-16" value="三方APP" style="whiteSpace=wrap;strokeWidth=2;fontSize=22;" vertex="1" parent="1">
          <mxGeometry x="951" y="698" width="119" height="54" as="geometry" />
        </mxCell>
        <mxCell id="IDMFy60mEpOIKTwCdm0q-17" value="终端用户" style="whiteSpace=wrap;strokeWidth=2;fontSize=22;" vertex="1" parent="1">
          <mxGeometry x="949" y="850" width="124" height="54" as="geometry" />
        </mxCell>
        <mxCell id="IDMFy60mEpOIKTwCdm0q-18" value="1. 提供加密基座模型" style="curved=1;startArrow=none;endArrow=block;exitX=0.05;exitY=1;entryX=0.5;entryY=0;rounded=0;fontSize=22;" edge="1" parent="1" source="IDMFy60mEpOIKTwCdm0q-5" target="IDMFy60mEpOIKTwCdm0q-6">
          <mxGeometry relative="1" as="geometry">
            <Array as="points">
              <mxPoint x="371" y="259" />
            </Array>
          </mxGeometry>
        </mxCell>
        <mxCell id="IDMFy60mEpOIKTwCdm0q-19" value="2. 开放SDK/API" style="curved=1;startArrow=none;endArrow=block;exitX=0.89;exitY=1;entryX=0.5;entryY=0;rounded=0;fontSize=22;" edge="1" parent="1" source="IDMFy60mEpOIKTwCdm0q-5" target="IDMFy60mEpOIKTwCdm0q-7">
          <mxGeometry relative="1" as="geometry">
            <Array as="points">
              <mxPoint x="578" y="259" />
            </Array>
          </mxGeometry>
        </mxCell>
        <mxCell id="IDMFy60mEpOIKTwCdm0q-20" value="3. 搭建模型平台" style="curved=1;startArrow=none;endArrow=block;exitX=0.51;exitY=1;entryX=0.62;entryY=0;rounded=0;fontSize=22;" edge="1" parent="1" source="IDMFy60mEpOIKTwCdm0q-5" target="IDMFy60mEpOIKTwCdm0q-8">
          <mxGeometry relative="1" as="geometry">
            <Array as="points">
              <mxPoint x="484" y="259" />
              <mxPoint x="484" y="662" />
            </Array>
          </mxGeometry>
        </mxCell>
        <mxCell id="IDMFy60mEpOIKTwCdm0q-21" value="4. 部署训练环境" style="curved=1;startArrow=none;endArrow=block;exitX=0.5;exitY=1;entryX=0.5;entryY=0;rounded=0;fontSize=22;" edge="1" parent="1" source="IDMFy60mEpOIKTwCdm0q-9" target="IDMFy60mEpOIKTwCdm0q-10">
          <mxGeometry relative="1" as="geometry">
            <Array as="points" />
          </mxGeometry>
        </mxCell>
        <mxCell id="IDMFy60mEpOIKTwCdm0q-22" value="5. 获取训练SDK代码&#xa;或者提供数据" style="curved=1;startArrow=none;endArrow=block;exitX=0.65;exitY=1;entryX=0;entryY=0.1;rounded=0;fontSize=18;" edge="1" parent="1" source="IDMFy60mEpOIKTwCdm0q-10" target="IDMFy60mEpOIKTwCdm0q-6">
          <mxGeometry x="-0.2384" y="2" relative="1" as="geometry">
            <Array as="points">
              <mxPoint x="174" y="259" />
            </Array>
            <mxPoint as="offset" />
          </mxGeometry>
        </mxCell>
        <mxCell id="IDMFy60mEpOIKTwCdm0q-23" value="6. 本地训练LoRA" style="curved=1;startArrow=none;endArrow=block;exitX=0.46;exitY=1;entryX=0.5;entryY=0;rounded=0;fontSize=22;" edge="1" parent="1" source="IDMFy60mEpOIKTwCdm0q-10" target="IDMFy60mEpOIKTwCdm0q-11">
          <mxGeometry relative="1" as="geometry">
            <Array as="points">
              <mxPoint x="122" y="259" />
            </Array>
          </mxGeometry>
        </mxCell>
        <mxCell id="IDMFy60mEpOIKTwCdm0q-24" value="7. 生成加密适配器" style="curved=1;startArrow=none;endArrow=block;exitX=0.5;exitY=1;entryX=0.5;entryY=0;rounded=0;fontSize=22;" edge="1" parent="1" source="IDMFy60mEpOIKTwCdm0q-11" target="IDMFy60mEpOIKTwCdm0q-12">
          <mxGeometry relative="1" as="geometry">
            <Array as="points" />
          </mxGeometry>
        </mxCell>
        <mxCell id="IDMFy60mEpOIKTwCdm0q-25" value="8. a.签名并上传" style="curved=1;startArrow=none;endArrow=block;exitX=0.5;exitY=1;entryX=0.45;entryY=0;rounded=0;fontSize=22;exitDx=0;exitDy=0;" edge="1" parent="1" source="IDMFy60mEpOIKTwCdm0q-12" target="IDMFy60mEpOIKTwCdm0q-8">
          <mxGeometry relative="1" as="geometry">
            <Array as="points">
              <mxPoint x="130" y="660" />
              <mxPoint x="423" y="662" />
            </Array>
          </mxGeometry>
        </mxCell>
        <mxCell id="IDMFy60mEpOIKTwCdm0q-26" value="9. 安全下发" style="curved=1;startArrow=none;endArrow=block;exitX=0.92;exitY=1;entryX=0.76;entryY=0;rounded=0;fontSize=22;" edge="1" parent="1" source="IDMFy60mEpOIKTwCdm0q-8" target="IDMFy60mEpOIKTwCdm0q-13">
          <mxGeometry x="0.0018" relative="1" as="geometry">
            <Array as="points">
              <mxPoint x="568" y="777" />
              <mxPoint x="912" y="814" />
            </Array>
            <mxPoint as="offset" />
          </mxGeometry>
        </mxCell>
        <mxCell id="IDMFy60mEpOIKTwCdm0q-27" value="10. 动态加载模型" style="curved=1;startArrow=none;endArrow=block;exitX=0.5;exitY=1;entryX=0;entryY=0.36;rounded=0;fontSize=22;" edge="1" parent="1" source="IDMFy60mEpOIKTwCdm0q-7" target="IDMFy60mEpOIKTwCdm0q-14">
          <mxGeometry relative="1" as="geometry">
            <Array as="points">
              <mxPoint x="578" y="413" />
            </Array>
          </mxGeometry>
        </mxCell>
        <mxCell id="IDMFy60mEpOIKTwCdm0q-28" value="11. 组合推理" style="curved=1;startArrow=none;endArrow=block;exitX=0.5;exitY=1;entryX=0.5;entryY=0;rounded=0;fontSize=22;" edge="1" parent="1" source="IDMFy60mEpOIKTwCdm0q-14" target="IDMFy60mEpOIKTwCdm0q-15">
          <mxGeometry relative="1" as="geometry">
            <Array as="points" />
          </mxGeometry>
        </mxCell>
        <mxCell id="IDMFy60mEpOIKTwCdm0q-29" value="12. 返回结果" style="curved=1;startArrow=none;endArrow=block;exitX=0.5;exitY=1;entryX=0.5;entryY=0;rounded=0;fontSize=22;" edge="1" parent="1" source="IDMFy60mEpOIKTwCdm0q-15" target="IDMFy60mEpOIKTwCdm0q-16">
          <mxGeometry relative="1" as="geometry">
            <Array as="points" />
          </mxGeometry>
        </mxCell>
        <mxCell id="IDMFy60mEpOIKTwCdm0q-30" value="13. 用户使用" style="curved=1;startArrow=none;endArrow=block;exitX=0.5;exitY=1;entryX=0.5;entryY=0;rounded=0;fontSize=22;" edge="1" parent="1" source="IDMFy60mEpOIKTwCdm0q-16" target="IDMFy60mEpOIKTwCdm0q-17">
          <mxGeometry relative="1" as="geometry">
            <Array as="points" />
          </mxGeometry>
        </mxCell>
        <mxCell id="IDMFy60mEpOIKTwCdm0q-31" value="加密通道" style="curved=1;dashed=1;dashPattern=2 3;startArrow=none;endArrow=block;exitX=0.19;exitY=1;entryX=0.33;entryY=0;rounded=0;fontSize=22;" edge="1" parent="1" source="IDMFy60mEpOIKTwCdm0q-8" target="IDMFy60mEpOIKTwCdm0q-13">
          <mxGeometry relative="1" as="geometry">
            <Array as="points">
              <mxPoint x="348" y="777" />
              <mxPoint x="788" y="814" />
            </Array>
          </mxGeometry>
        </mxCell>
        <mxCell id="IDMFy60mEpOIKTwCdm0q-32" value="基模权重更新+加密+下发" style="curved=1;dashed=1;dashPattern=2 3;startArrow=none;endArrow=block;exitX=0.5;exitY=1;entryX=1;entryY=0.26;rounded=0;fontSize=22;" edge="1" parent="1" source="IDMFy60mEpOIKTwCdm0q-6" target="IDMFy60mEpOIKTwCdm0q-11">
          <mxGeometry relative="1" as="geometry">
            <Array as="points">
              <mxPoint x="371" y="413" />
            </Array>
          </mxGeometry>
        </mxCell>
        <mxCell id="IDMFy60mEpOIKTwCdm0q-39" value="" style="curved=1;endArrow=classic;html=1;rounded=0;entryX=0;entryY=0.5;entryDx=0;entryDy=0;exitX=0.5;exitY=1;exitDx=0;exitDy=0;" edge="1" parent="1" source="IDMFy60mEpOIKTwCdm0q-12" target="IDMFy60mEpOIKTwCdm0q-16">
          <mxGeometry width="50" height="50" relative="1" as="geometry">
            <mxPoint x="150" y="600" as="sourcePoint" />
            <mxPoint x="525" y="570" as="targetPoint" />
            <Array as="points">
              <mxPoint x="180" y="1130" />
            </Array>
          </mxGeometry>
        </mxCell>
        <mxCell id="IDMFy60mEpOIKTwCdm0q-41" value="&lt;span style=&quot;color: rgb(0, 0, 0); font-family: Helvetica; font-style: normal; font-variant-ligatures: normal; font-variant-caps: normal; font-weight: 400; letter-spacing: normal; orphans: 2; text-align: center; text-indent: 0px; text-transform: none; widows: 2; word-spacing: 0px; -webkit-text-stroke-width: 0px; white-space: nowrap; background-color: rgb(255, 255, 255); text-decoration-thickness: initial; text-decoration-style: initial; text-decoration-color: initial; float: none; display: inline !important;&quot;&gt;&lt;font style=&quot;font-size: 22px;&quot;&gt;8. b.三方独立预置&lt;/font&gt;&lt;/span&gt;" style="text;whiteSpace=wrap;html=1;" vertex="1" parent="1">
          <mxGeometry x="160" y="810" width="170" height="50" as="geometry" />
        </mxCell>
      </root>
    </mxGraphModel>
  </diagram>
</mxfile>
